<svg enable-background="new 0 0 200 20" viewBox="0 0 200 20" xmlns="http://www.w3.org/2000/svg"><g fill="#ffb923"><path d="m119.97 8.01c.05-.42-.24-.79-.65-.85l-5.98-.87-2.67-5.42c-.25-.5-1.12-.5-1.36 0l-2.69 5.42-6 .87c-.17.04-.31.11-.42.22-.14.14-.22.34-.22.54 0 .21.08.4.23.53l4.33 4.21-1.01 5.92c-.02.08-.02.13-.02.17 0 .53.5.96 1.13.68l5.35-2.82 5.34 2.82c.11.06.24.1.36.1.04 0 .08 0 .12-.01.41-.06.69-.46.63-.88l-1.02-5.96 4.33-4.23c.13-.12.2-.27.22-.44z"/><path d="m139.96 8.01c.05-.42-.24-.79-.65-.85l-5.98-.87-2.67-5.42c-.25-.5-1.12-.5-1.36 0l-2.69 5.42-6 .87c-.17.04-.31.11-.42.22-.14.14-.22.34-.22.54 0 .21.08.4.23.53l4.33 4.21-1.01 5.92c-.02.08-.02.13-.02.17 0 .53.5.96 1.13.68l5.35-2.82 5.34 2.82c.11.06.24.1.36.1.04 0 .08 0 .12-.01.41-.06.69-.46.63-.88l-1.02-5.96 4.33-4.23c.13-.12.2-.27.22-.44z"/><path d="m159.96 8.01c.05-.42-.24-.79-.65-.85l-5.98-.87-2.67-5.42c-.25-.5-1.12-.5-1.36 0l-2.69 5.42-6 .87c-.17.04-.31.11-.42.22-.14.14-.22.34-.22.54 0 .21.08.4.23.53l4.33 4.21-1.01 5.92c-.02.08-.02.13-.02.17 0 .53.5.96 1.13.68l5.35-2.82 5.34 2.82c.11.06.24.1.36.1.04 0 .08 0 .12-.01.41-.06.69-.46.63-.88l-1.02-5.96 4.33-4.23c.13-.12.2-.27.22-.44z"/><path d="m179.95 8.01c.05-.42-.24-.79-.65-.85l-5.98-.87-2.67-5.42c-.25-.5-1.12-.5-1.36 0l-2.69 5.42-6 .87c-.17.04-.31.11-.42.22-.14.14-.22.34-.22.54 0 .21.08.4.23.53l4.33 4.21-1.01 5.92c-.02.08-.02.13-.02.17 0 .53.5.96 1.13.68l5.35-2.82 5.34 2.82c.11.06.24.1.36.1.04 0 .08 0 .12-.01.41-.06.69-.46.63-.88l-1.02-5.96 4.33-4.23c.13-.12.2-.27.22-.44z"/><path d="m199.95 8.01c.05-.42-.24-.79-.65-.85l-5.98-.87-2.67-5.42c-.25-.5-1.12-.5-1.36 0l-2.69 5.42-6 .87c-.17.04-.31.11-.42.22-.14.14-.22.34-.22.54 0 .21.08.4.23.53l4.33 4.21-1.01 5.92c-.02.08-.02.13-.02.17 0 .53.5.96 1.13.68l5.35-2.82 5.34 2.82c.11.06.24.1.36.1.04 0 .08 0 .12-.01.41-.06.69-.46.63-.88l-1.02-5.96 4.33-4.23c.13-.12.2-.27.22-.44z"/><path d="m10.01 1.74 2.45 4.98c.15.3.43.5.75.55l5.5.8-3.98 3.88c-.24.23-.34.56-.29.88l.94 5.47-4.91-2.6c-.15-.08-.31-.12-.47-.12s-.32.04-.47.12l-4.94 2.6.94-5.5c.06-.32-.05-.66-.29-.89l-3.96-3.85 5.5-.8c.33-.05.61-.25.75-.55zm0-1.26c-.28 0-.56.12-.68.38l-2.69 5.42-6 .87c-.17.04-.31.11-.42.22-.14.14-.22.34-.22.54 0 .21.08.4.23.53l4.33 4.21-1.01 5.92c-.02.08-.02.13-.02.17 0 .41.31.77.74.77.12 0 .25-.03.39-.09l5.35-2.82 5.34 2.82c.11.06.24.1.36.1.04 0 .08 0 .12-.01.41-.06.69-.46.63-.88l-1.02-5.96 4.33-4.23c.13-.12.2-.27.22-.44.05-.42-.24-.79-.65-.85l-5.98-.87-2.67-5.42c-.12-.25-.4-.38-.68-.38z"/><path d="m30.01 1.74 2.45 4.98c.15.3.43.5.75.55l5.5.8-3.98 3.88c-.24.23-.34.56-.29.88l.94 5.47-4.91-2.6c-.15-.08-.31-.12-.47-.12s-.32.04-.47.12l-4.94 2.6.94-5.5c.06-.32-.05-.66-.29-.89l-3.96-3.85 5.5-.8c.33-.05.61-.25.75-.55zm0-1.26c-.28 0-.56.12-.68.38l-2.69 5.42-6 .87c-.17.04-.31.11-.42.22-.14.14-.22.34-.22.54 0 .21.08.4.23.53l4.33 4.21-1.01 5.92c-.02.08-.02.13-.02.17 0 .41.31.77.74.77.12 0 .25-.03.39-.09l5.35-2.82 5.34 2.82c.11.06.24.1.36.1.04 0 .08 0 .12-.01.41-.06.69-.46.63-.88l-1.02-5.96 4.33-4.23c.13-.12.2-.27.22-.44.05-.42-.24-.79-.65-.85l-5.98-.87-2.67-5.42c-.12-.25-.4-.38-.68-.38z"/><path d="m50 1.74 2.45 4.98c.15.3.43.5.75.55l5.5.8-3.98 3.88c-.24.23-.34.56-.29.88l.94 5.47-4.91-2.6c-.15-.08-.31-.12-.47-.12s-.32.04-.47.12l-4.94 2.6.94-5.5c.06-.32-.05-.66-.29-.89l-3.96-3.85 5.5-.8c.33-.05.61-.25.75-.55zm0-1.26c-.28 0-.56.12-.68.38l-2.69 5.42-6 .87c-.17.04-.31.11-.42.22-.14.14-.22.34-.22.54 0 .21.08.4.23.53l4.33 4.21-1.01 5.92c-.02.08-.02.13-.02.17 0 .41.31.77.74.77.12 0 .25-.03.39-.09l5.35-2.82 5.34 2.82c.11.06.24.1.36.1.04 0 .08 0 .12-.01.41-.06.69-.46.63-.88l-1.02-5.96 4.33-4.23c.13-.12.2-.27.22-.44.05-.42-.24-.79-.65-.85l-5.98-.87-2.67-5.42c-.12-.25-.4-.38-.68-.38z"/><path d="m70 1.74 2.45 4.98c.15.3.43.5.75.55l5.5.8-3.98 3.88c-.24.23-.34.56-.29.88l.94 5.47-4.91-2.6c-.15-.08-.31-.12-.47-.12s-.32.04-.47.12l-4.94 2.6.94-5.5c.06-.32-.05-.66-.29-.89l-3.96-3.85 5.5-.8c.33-.05.61-.25.75-.55zm0-1.26c-.28 0-.56.12-.68.38l-2.69 5.42-6 .87c-.17.04-.31.11-.42.22-.14.14-.22.34-.22.54 0 .21.08.4.23.53l4.33 4.21-1.01 5.92c-.02.08-.02.13-.02.17 0 .41.31.77.74.77.12 0 .25-.03.39-.09l5.35-2.82 5.34 2.82c.11.06.24.1.36.1.04 0 .08 0 .12-.01.41-.06.69-.46.63-.88l-1.02-5.96 4.33-4.23c.13-.12.2-.27.22-.44.05-.42-.24-.79-.65-.85l-5.98-.87-2.67-5.42c-.12-.25-.4-.38-.68-.38z"/><path d="m89.99 1.74 2.45 4.98c.15.3.43.5.75.55l5.5.8-3.98 3.88c-.24.23-.34.56-.29.88l.94 5.47-4.91-2.6c-.15-.08-.31-.12-.47-.12s-.32.04-.47.12l-4.94 2.6.94-5.5c.06-.32-.05-.66-.29-.89l-3.96-3.85 5.5-.8c.33-.05.61-.25.75-.55zm0-1.26c-.28 0-.56.12-.68.38l-2.69 5.42-6 .87c-.17.04-.31.11-.42.22-.14.14-.22.34-.22.54 0 .21.08.4.23.53l4.33 4.21-1.01 5.92c-.02.08-.02.13-.02.17 0 .41.31.77.74.77.12 0 .25-.03.39-.09l5.35-2.82 5.34 2.82c.11.06.24.1.36.1.04 0 .08 0 .12-.01.41-.06.69-.46.63-.88l-1.02-5.96 4.33-4.23c.13-.12.2-.27.22-.44.05-.42-.24-.79-.65-.85l-5.98-.87-2.67-5.42c-.12-.25-.4-.38-.68-.38z"/></g></svg>